<svg xmlns="http://www.w3.org/2000/svg" version="1.1" xmlns:xlink="http://www.w3.org/1999/xlink" xmlns:svgjs="http://svgjs.com/svgjs" width="256" height="256"><svg version="1.1" id="SvgjsSvg1000" xmlns="http://www.w3.org/2000/svg" xmlns:xlink="http://www.w3.org/1999/xlink" x="0px" y="0px" viewBox="0 0 256 256" style="enable-background:new 0 0 256 256;" xml:space="preserve">
<style type="text/css">
	.st0{fill:#FFB643;}
</style>
<g>
	<path class="st0" d="M128,30.97c53.5,0,97.03,43.53,97.03,97.03S181.5,225.03,128,225.03S30.97,181.5,30.97,128
		S74.5,30.97,128,30.97 M128,23.97C70.55,23.97,23.97,70.55,23.97,128S70.55,232.03,128,232.03S232.03,185.45,232.03,128
		S185.45,23.97,128,23.97L128,23.97z"></path>
</g>
<g>
	<path class="st0" d="M128,0.8c1.91,32.3-8.35,65.93-30.76,89.87c0,0-4.44,4.31-4.44,4.31c-2.17,2.02-4.77,4.14-7.11,5.96
		c-2.48,1.68-5.07,3.76-7.68,5.2c-1.78,1.04-3.54,2.1-5.34,3.1l-5.56,2.67c-18.49,8.34-39.54,10.95-59.4,9.16
		c27.41-2.51,54.8-9.49,75.99-27.41C110.97,71.04,123.96,35.3,128,0.8L128,0.8z"></path>
</g>
<g>
	<path class="st0" d="M128,0.8c4.03,34.5,17.03,70.24,44.28,92.86c21.19,17.92,48.58,24.89,75.99,27.41
		c-19.85,1.78-40.91-0.83-59.4-9.16c0,0-5.56-2.67-5.56-2.67c-1.79-1.01-3.56-2.07-5.34-3.1c-2.6-1.44-5.2-3.52-7.68-5.2
		c-2.34-1.82-4.93-3.94-7.11-5.96c0,0-4.44-4.31-4.44-4.31C136.35,66.73,126.09,33.1,128,0.8L128,0.8z"></path>
</g>
<g>
	<path class="st0" d="M75.45,2.61c3.17,26.18,3.89,52.42,4,78.72c-0.09,26.3-0.81,52.55-4,78.72c-3.19-26.18-3.91-52.42-4-78.72
		C71.56,55.03,72.28,28.78,75.45,2.61L75.45,2.61z"></path>
</g>
<g>
	<path class="st0" d="M75.45,174.67c5.39,22.85,5.43,55.87,0,78.72C70.03,230.55,70.06,197.54,75.45,174.67L75.45,174.67z"></path>
</g>
</svg><style>@media (prefers-color-scheme: light) { :root { filter: none; } }
</style></svg>